<svg width="512" height="512" viewBox="0 0 512 512" fill="none" xmlns="http://www.w3.org/2000/svg">
<g clip-path="url(#clip0_910_1379)">
<path d="M236.977 364.072C239.763 364.456 242.74 364.936 245.526 365.609C248.312 366.281 251.097 367.145 253.883 367.914L262.047 370.411C264.737 371.276 267.426 371.948 270.116 372.621C272.806 373.293 275.495 373.773 278.089 374.061L279.049 374.157L279.529 374.253H279.625C279.625 374.253 279.433 374.253 279.529 374.253H279.625H279.914L282.027 374.349C283.372 374.349 284.524 374.35 285.869 374.253C288.559 374.157 291.152 373.869 293.745 373.389C296.339 372.909 299.029 372.332 301.622 371.564C302.871 371.18 304.215 370.795 305.464 370.315L307.385 369.643L309.306 368.874C311.804 367.818 314.301 366.665 316.799 365.512L320.545 363.687C321.89 363.111 323.042 362.535 324.291 361.958C326.788 360.806 329.382 359.749 331.975 358.693C333.224 358.212 334.569 357.636 335.818 357.156C337.066 356.675 338.411 356.099 339.756 355.619C341.101 355.139 342.349 354.562 343.694 354.082C344.943 353.506 346.288 353.121 347.632 352.545C350.322 351.585 352.915 350.528 355.605 349.567C358.294 348.607 360.984 347.646 363.866 346.782L364.538 349.759C364.058 349.567 363.481 349.279 363.001 348.991C362.521 348.703 361.944 348.511 361.464 348.223L361.656 346.974C362.233 346.878 362.809 346.782 363.385 346.686C363.962 346.59 364.538 346.494 365.114 346.494L368.86 346.109L365.787 349.567C361.848 353.986 357.334 357.924 352.627 361.478C350.226 363.207 347.824 364.936 345.327 366.473C344.078 367.241 342.83 368.01 341.581 368.778C340.332 369.547 338.987 370.219 337.739 370.892C335.145 372.236 332.456 373.485 329.766 374.542C328.421 375.118 326.98 375.598 325.636 376.079L323.522 376.751L321.409 377.423C318.624 378.288 315.646 379.056 312.764 379.729C309.883 380.401 306.905 381.073 303.927 381.65C300.95 382.226 297.972 382.61 294.898 382.802C291.824 382.994 288.751 383.091 285.677 382.898C284.14 382.802 282.507 382.61 280.97 382.418L278.857 382.034H278.569H278.473H278.377H278.281L277.704 381.938L276.552 381.65C273.574 380.977 270.692 380.017 267.907 378.96C262.336 376.847 257.245 374.253 252.058 371.852C249.464 370.603 246.967 369.451 244.277 368.394C241.684 367.338 239.09 366.281 236.305 365.512L236.977 364.072Z" fill="#93BCDC"/>
<path d="M296.345 215.762L297.402 220.565L298.458 225.272L299.611 229.979L300.86 234.685L302.108 239.392L303.453 244.003L304.798 248.613L306.239 253.224L307.679 257.834L309.216 262.349L310.849 266.864C311.426 268.401 311.906 269.841 312.482 271.378L314.211 275.893L315.94 280.407L317.765 284.826L319.686 289.244L316.709 286.171L319.206 287.227L321.607 288.476L323.913 289.917L326.026 291.55C326.698 292.126 327.371 292.798 328.043 293.375L329.868 295.392C330.444 296.064 330.925 296.833 331.501 297.601C331.981 298.37 332.462 299.138 332.942 299.907C333.326 300.675 333.806 301.539 334.191 302.308C334.575 303.172 334.863 304.037 335.151 304.901C335.439 305.766 335.631 306.63 335.92 307.591C336.112 308.455 336.208 309.416 336.4 310.28C336.496 311.241 336.592 312.105 336.592 313.066C336.592 314.027 336.592 314.891 336.496 315.852C336.4 316.812 336.208 317.677 336.112 318.637C335.92 319.598 335.631 320.462 335.439 321.327L334.287 325.841L330.06 326.13C329.388 326.13 328.715 326.226 328.043 326.226C327.371 326.226 326.698 326.322 326.026 326.322C325.354 326.418 324.681 326.418 324.105 326.514C323.432 326.61 322.856 326.706 322.184 326.706C321.511 326.802 320.935 326.898 320.263 326.994C319.686 327.09 319.014 327.186 318.438 327.378C317.861 327.57 317.285 327.666 316.709 327.858C316.42 327.955 316.132 328.051 315.844 328.147C315.556 328.243 315.268 328.339 315.076 328.435C314.787 328.531 314.499 328.627 314.307 328.723L313.539 329.107C313.058 329.395 312.482 329.587 312.098 329.972L311.426 330.452L310.753 330.932C310.657 331.028 310.561 331.124 310.465 331.22L310.177 331.509C309.985 331.701 309.793 331.893 309.601 332.181L309.12 332.853L308.832 333.238C308.832 333.238 308.832 333.334 308.832 333.238V333.334L308.736 333.43L308.64 333.622C308.352 334.102 308.064 334.678 307.775 335.351C307.487 336.023 307.295 336.696 307.103 337.368L306.431 339.481H305.086C304.798 338.713 304.606 338.04 304.414 337.272C304.221 336.503 304.029 335.735 304.029 334.967C303.933 334.102 303.933 333.334 303.933 332.373V332.085V331.989V331.893C303.933 331.797 303.933 331.797 303.933 331.797L304.029 331.124L304.318 329.78C304.414 329.395 304.606 328.915 304.702 328.531L304.894 327.858C304.99 327.666 305.086 327.474 305.182 327.282L305.854 326.033C306.143 325.649 306.335 325.265 306.623 324.881L307.007 324.304L307.487 323.824C307.775 323.44 308.064 323.152 308.352 322.768C308.64 322.479 309.024 322.191 309.312 321.807C309.601 321.519 309.985 321.231 310.369 320.943C310.753 320.654 311.041 320.366 311.426 320.174C311.81 319.886 312.098 319.694 312.482 319.406C313.251 318.925 313.923 318.445 314.691 318.061C315.46 317.677 316.228 317.292 316.997 316.908C317.765 316.62 318.534 316.236 319.302 315.948C320.071 315.66 320.839 315.371 321.607 315.179C322.376 314.891 323.144 314.699 323.913 314.507C325.45 314.027 326.986 313.738 328.523 313.45L323.144 318.253C323.144 317.773 323.24 317.196 323.24 316.716C323.24 316.236 323.24 315.66 323.24 315.179C323.144 314.699 323.144 314.123 323.144 313.642C323.048 313.162 323.048 312.586 322.952 312.105C322.856 311.625 322.76 311.049 322.664 310.569C322.472 310.088 322.376 309.512 322.28 309.032C322.088 308.551 321.896 307.975 321.799 307.495C321.607 307.015 321.415 306.438 321.223 305.958C320.935 305.478 320.743 304.997 320.551 304.421C320.263 303.941 319.974 303.461 319.782 302.98L318.918 301.636C318.534 301.251 318.245 300.771 317.861 300.291L316.709 299.042L315.46 297.889C314.98 297.601 314.595 297.217 314.115 296.929L312.674 296.064L310.177 294.623L309.697 292.991L308.256 288.284L306.815 283.577L305.47 278.87L304.221 274.068C303.837 272.435 303.453 270.898 303.069 269.265L302.012 264.462L300.956 259.66L299.995 254.857L299.131 250.054L298.362 245.155L297.69 240.256L297.113 235.358L296.633 230.459L296.153 225.56L295.769 220.661L295.48 215.762H296.345Z" fill="#93BCDC"/>
<path d="M285.777 513.822C255.904 513.822 225.743 503.448 202.593 484.717C176.178 463.297 157.832 431.983 146.593 388.758L146.401 388.182C133.818 339.578 127.19 299.331 125.461 261.39C123.732 221.623 132.954 185.026 151.588 157.65C140.158 137.863 142.079 110.968 156.871 93.3896C172.624 74.5628 201.249 68.1272 223.533 78.5011C224.11 78.7893 224.782 79.0774 225.358 79.3656C227.28 80.3261 229.009 81.1906 230.545 81.3827C232.466 81.6709 235.06 81.1906 237.653 80.6143H237.75C275.883 72.2575 315.074 67.6469 354.072 66.6863C363.293 66.4942 373.091 66.6863 381.352 72.0654C389.516 77.3484 393.743 85.9934 397.393 94.3501C438.216 189.252 449.454 292.992 429.091 386.453C418.141 436.594 399.026 470.405 370.497 489.808C348.021 505.177 320.741 510.172 302.106 512.669C296.823 513.438 291.252 513.822 285.777 513.822ZM200.672 86.7618C187.897 86.7618 174.93 92.1409 166.861 101.842C154.95 116.059 154.086 139.016 164.748 154.192L167.437 158.035L164.652 161.877C146.017 187.235 136.7 222.391 138.429 261.005C140.062 297.986 146.593 337.369 158.985 385.012L159.177 385.588C169.647 426.028 186.552 455.132 210.758 474.727C235.444 494.611 268.967 504.12 300.473 499.894C317.763 497.588 343.122 492.978 363.197 479.242C388.748 461.76 406.134 430.542 416.316 383.86C436.103 293.088 425.153 192.134 385.386 99.7292C382.504 92.9093 379.43 86.5697 374.34 83.2078C369.153 79.8459 361.948 79.7498 354.456 79.9419C316.226 80.8064 277.9 85.417 240.535 93.5817H240.439C236.885 94.3501 232.851 95.2146 228.432 94.5423C224.974 93.9659 222.093 92.5251 219.595 91.2764C219.019 90.9882 218.539 90.7001 217.962 90.5079C212.679 87.9145 206.724 86.7618 200.672 86.7618Z" fill="#93BCDC"/>
<path d="M302.969 470.211C293.075 470.211 283.085 468.194 273.96 464.256C263.298 459.645 252.636 452.153 241.494 441.203C240.437 440.146 239.765 438.705 239.765 437.169C239.765 435.632 240.437 434.095 241.59 433.038C242.166 432.462 243.031 432.174 243.799 432.174C244.663 432.174 245.528 432.558 246.104 433.134C253.116 440.146 264.067 450.232 277.418 455.995C285.487 459.453 294.228 461.278 302.873 461.278C303.545 461.278 304.314 461.278 304.986 461.278C322.564 460.702 339.854 452.249 351.188 438.801C356.567 432.366 359.257 426.314 359.161 420.647C359.065 418.054 358.2 415.172 356.567 412.867C355.991 412.002 354.934 411.522 353.878 411.522C353.013 411.522 352.245 411.81 351.669 412.386C350.804 413.155 349.94 413.827 348.883 414.307C346.386 415.46 343.792 415.652 341.871 415.652C341.006 415.652 340.238 415.652 339.47 415.556C337.741 415.46 336.012 415.46 334.283 415.46C316.224 415.46 298.742 419.014 282.125 426.026L275.305 428.908L276.169 421.223L277.418 421.416C277.514 421.416 277.706 421.416 277.802 421.416C278.859 421.416 279.916 420.839 280.492 419.975C281.068 419.11 281.164 417.958 280.78 416.901V416.805C297.59 409.985 316.032 406.431 334.187 406.431C336.012 406.431 337.837 406.431 339.662 406.527H339.95C340.43 406.527 340.91 406.527 341.391 406.527C342.543 406.527 343.504 405.951 344.176 405.086C344.753 404.222 344.849 403.069 344.464 402.012L343.024 398.747L350.516 399.419C360.121 400.283 367.998 409.697 368.286 420.455C368.478 428.331 365.02 436.496 358.2 444.661C345.233 460.03 325.446 469.635 305.37 470.307C304.602 470.211 303.737 470.211 302.969 470.211Z" fill="#93BCDC"/>
<path d="M141.308 354.946C125.843 354.946 112.972 344.572 105.864 334.39C97.6031 322.479 93.953 308.263 90.7832 295.68L84.3475 270.322C82.2343 261.965 78.6803 247.941 85.5002 236.702C91.2635 227.193 103.847 222.198 115.373 224.792C125.459 227.097 134.296 234.589 139.099 244.867L127.188 250.342C124.114 243.81 118.543 238.912 112.492 237.471C106.344 236.126 99.6203 238.623 96.6425 243.426C92.8964 249.478 94.8175 258.411 96.9307 267.056L103.366 292.414C106.44 304.517 109.61 316.908 116.526 326.898C123.538 336.984 134.104 342.747 143.613 341.69L145.054 354.658C143.902 354.85 142.557 354.946 141.308 354.946Z" fill="#93BCDC"/>
<path d="M186.163 285.115C183.954 285.115 181.264 284.923 178.575 283.771C174.925 282.234 172.523 279.544 170.602 277.143C162.053 266.192 153.985 248.326 153.313 231.036C147.645 231.997 143.419 233.534 136.599 236.127L135.254 236.608L130.644 224.409L131.988 223.928C140.057 220.855 145.724 218.741 154.657 217.685C155.714 215.379 158.019 213.266 161.957 212.498C193.463 206.35 225.642 203.949 257.724 205.102C268.194 205.486 280.201 206.446 290.767 212.114L295.57 214.707L293.937 219.894C288.174 238.048 280.873 255.915 272.228 272.82C271.46 274.357 270.211 276.662 268.098 278.584C265.312 280.985 262.047 281.753 259.261 282.234C252.537 283.386 245.909 283.578 239.474 283.771L188.084 285.211C187.412 285.115 186.836 285.115 186.163 285.115ZM166.472 226.33C165.704 241.122 172.908 258.796 180.88 269.074C181.361 269.65 182.705 271.379 183.57 271.764C184.434 272.148 186.163 272.052 187.604 272.052L238.993 270.611C245.237 270.419 251.192 270.227 256.956 269.266C258.781 268.978 259.261 268.69 259.453 268.594C259.741 268.306 260.222 267.249 260.51 266.769C268.002 252.168 274.438 236.992 279.625 221.431C272.613 219.03 264.832 218.453 257.244 218.165C227.371 217.012 197.306 219.222 167.817 224.697C167.529 225.273 167.048 225.849 166.472 226.33Z" fill="#93BCDC"/>
<path d="M342.933 275.221C341.012 275.317 338.995 275.317 336.978 275.221C334.192 275.125 330.927 274.741 327.949 272.724C325.643 271.187 324.203 269.074 323.242 267.633C312.868 252.456 303.647 236.415 295.963 219.701L293.657 214.803L298.076 211.633C307.489 204.909 318.92 202.508 328.909 200.875C359.359 195.784 390.481 194.151 421.314 196.168C426.789 196.552 429.383 199.626 430.151 202.7C435.914 221.623 429.575 245.348 421.314 259.372C419.777 261.966 417.76 264.847 414.398 266.768C411.228 268.593 407.866 268.978 405.465 269.17L356.189 274.165C351.866 274.645 347.448 275.125 342.933 275.221ZM310.275 219.605C317.095 233.725 325.067 247.365 334 260.333C334.288 260.813 334.961 261.677 335.153 261.87C335.249 261.966 335.825 262.062 337.458 262.158C343.125 262.35 348.793 261.774 354.748 261.197L404.024 256.202C405.369 256.106 407.002 255.914 407.674 255.53C408.443 255.05 409.499 253.321 409.884 252.744C416.223 242.082 420.93 224.408 418.433 210.48C417.856 210.096 417.376 209.616 416.896 209.135C388.175 207.599 359.263 209.135 330.83 213.938C323.915 215.091 316.614 216.532 310.275 219.605ZM425.637 200.394L425.733 203.852L428.326 203.084C428.134 202.508 427.942 201.931 427.558 201.451C427.366 201.163 427.173 200.875 426.885 200.587C426.501 200.394 426.117 200.394 425.637 200.394Z" fill="#93BCDC"/>
<path d="M302.492 219.029H287.796V232.092H302.492V219.029Z" fill="#93BCDC"/>
<path d="M128.631 239.777C127.67 240.641 126.229 240.545 125.461 239.585C116.528 228.923 105.866 209.135 103.945 196.456C99.7183 168.408 99.5261 147.18 103.464 127.777C107.979 105.3 115.087 88.1062 125.557 74.7546C126.518 73.5059 125.845 71.5848 124.308 71.2966C121.907 70.8163 119.698 71.0084 117.488 71.6808L75.8966 86.089C73.4953 86.8575 71.8623 83.5916 73.9756 82.1508L111.821 59.9621L111.917 59.8661C113.838 58.6174 112.974 55.7357 110.669 55.8318C110.188 55.8318 109.708 55.8318 109.228 55.9278L78.202 62.8438C75.8006 62.9398 75.0322 59.674 77.1454 58.7134L106.25 43.5367C155.526 19.8112 232.754 -4.20254 301.433 -0.64851C323.046 0.504148 340.72 4.73056 355.416 12.1268C374.051 21.6362 388.555 43.921 394.126 60.6345C396.432 67.4544 399.025 86.2812 398.257 95.7906C398.161 97.1354 396.912 97.9998 395.663 97.8077L387.114 96.1748C386.058 95.9827 385.289 95.0222 385.385 93.8695C385.77 86.7614 383.752 70.4321 381.831 64.7649C376.933 50.0685 364.253 31.2417 349.557 23.7494C336.397 17.2177 320.452 13.4716 300.665 12.415C255.327 10.0136 198.655 20.5796 146.113 40.6551C144 41.4235 144.288 44.5933 146.593 44.8815C149.859 45.3618 162.346 47.7631 165.612 48.4355C166.765 48.6276 167.533 49.6842 167.341 50.8369L167.533 52.1817C167.437 53.3343 166.476 54.1028 165.42 54.1028C161.193 54.1988 146.689 60.5384 142.559 61.4029C140.638 61.7872 140.157 64.2846 141.79 65.3412L146.113 68.3189C147.265 69.0873 147.361 70.7203 146.401 71.6808L142.655 75.3309C129.783 87.818 121.427 105.3 116.432 130.274C112.878 148.14 113.07 167.928 117.104 194.439C118.641 204.333 128.054 221.911 135.451 230.844C136.219 231.708 136.123 233.053 135.259 233.821L128.631 239.777Z" fill="#93BCDC"/>
<path d="M306.046 211.345H287.796V225.561H306.046V211.345Z" fill="#93BCDC"/>
<path d="M231.599 250.054C230.543 250.054 229.486 249.958 228.429 249.766C224.107 249.093 220.649 247.652 217.959 245.251C216.519 243.906 215.366 242.369 214.598 240.64C214.309 240.352 214.117 239.968 213.925 239.68C212.676 237.375 212.484 234.493 213.349 232.092C215.654 226.232 222.09 224.023 227.373 223.831C232.848 223.639 239.86 225.56 242.934 231.419C243.894 233.244 244.375 235.357 244.375 237.567C244.375 241.697 242.55 245.443 239.572 247.652C237.363 249.285 234.673 250.054 231.599 250.054ZM219.304 234.685L219.977 234.781C219.688 236.606 220.553 238.815 222.282 240.352C223.915 241.889 226.316 242.85 229.39 243.234C231.311 243.522 234.001 243.618 235.73 242.369C237.074 241.409 237.843 239.584 237.843 237.567C237.843 236.414 237.555 235.357 237.17 234.493C235.538 231.323 231.023 230.266 227.661 230.363C224.395 230.459 220.553 231.803 219.592 234.397C219.4 234.589 219.4 234.589 219.304 234.685Z" fill="#93BCDC"/>
<path d="M359.639 241.122C358.294 241.122 356.853 240.93 355.605 240.546C349.745 238.913 345.231 233.534 344.462 227.482C344.366 226.522 344.27 224.985 344.846 223.352C346.479 218.934 351.666 218.357 353.587 218.069L354.26 217.973L354.548 217.589C354.836 217.205 355.413 216.436 356.565 216.052C358.006 215.572 359.159 216.052 359.639 216.244L365.21 218.549C366.939 219.222 368.86 219.99 370.589 221.335C372.894 223.064 374.239 225.465 374.527 227.963C374.816 230.46 373.951 232.958 372.03 235.263C369.052 239.009 364.346 241.122 359.639 241.122ZM360.599 223.832L354.356 224.601C351.186 224.985 350.898 225.657 350.898 225.753C350.898 225.753 350.802 226.042 350.898 226.714C351.282 230.172 354.068 233.342 357.334 234.302C360.696 235.263 364.634 234.014 366.843 231.325C367.611 230.364 367.996 229.5 367.9 228.731C367.804 228.059 367.323 227.29 366.459 226.714C365.402 225.946 364.057 225.369 362.617 224.793L360.599 223.832Z" fill="#93BCDC"/>
<path d="M199.423 191.27C197.886 190.021 197.79 187.812 199.135 186.371C204.418 181.184 211.334 177.822 218.73 177.054C226.126 176.285 233.618 178.206 239.766 182.241C241.399 183.297 241.687 185.602 240.438 187.043C239.382 188.292 237.557 188.58 236.212 187.716C231.313 184.45 225.166 182.913 219.402 183.489C213.543 184.066 207.876 186.851 203.745 190.982C202.593 192.23 200.672 192.326 199.423 191.27Z" fill="#93BCDC"/>
<path d="M392.586 182.048C391.241 183.008 389.416 182.912 388.263 181.664C383.941 176.957 378.081 173.787 371.838 172.827C365.498 171.866 358.967 173.115 353.491 176.285C352.051 177.149 350.226 176.669 349.265 175.324C348.112 173.787 348.593 171.482 350.322 170.521C357.141 166.679 365.114 165.142 372.894 166.391C380.675 167.64 387.783 171.482 393.066 177.245C394.315 178.686 394.123 180.895 392.586 182.048Z" fill="#93BCDC"/>
</g>
<defs>
<clipPath id="clip0_910_1379">
<rect width="512" height="512" fill="white"/>
</clipPath>
</defs>
</svg>
