<svg width="88" height="88" viewBox="0 0 88 88" fill="none" xmlns="http://www.w3.org/2000/svg">
<rect width="88" height="88" fill="white"/>
<path d="M41.4763 60.4935C41.8921 60.5509 42.3366 60.6225 42.7524 60.7229C43.1682 60.8233 43.584 60.9523 43.9998 61.067L45.2185 61.4398C45.62 61.5689 46.0215 61.6692 46.4229 61.7696C46.8244 61.8699 47.2258 61.9416 47.613 61.9846L47.7563 61.999L47.828 62.0133H47.8424C47.8424 62.0133 47.8137 62.0133 47.828 62.0133H47.8424H47.8854L48.2008 62.0277C48.4016 62.0277 48.5736 62.0277 48.7743 62.0133C49.1758 61.999 49.5629 61.956 49.95 61.8843C50.3372 61.8126 50.7386 61.7266 51.1258 61.6119C51.3121 61.5545 51.5129 61.4972 51.6993 61.4255L51.986 61.3251L52.2728 61.2104C52.6456 61.0527 53.0184 60.8806 53.3911 60.7086L53.9503 60.4362C54.1511 60.3501 54.3231 60.2641 54.5095 60.1781C54.8823 60.006 55.2694 59.8483 55.6565 59.6906C55.8429 59.6189 56.0437 59.5329 56.2301 59.4612C56.4164 59.3895 56.6172 59.3035 56.8179 59.2318C57.0186 59.1601 57.205 59.0741 57.4058 59.0024C57.5922 58.9163 57.7929 58.859 57.9936 58.773C58.3951 58.6296 58.7822 58.4719 59.1837 58.3285C59.5851 58.1851 59.9866 58.0417 60.4167 57.9127L60.5171 58.3572C60.4454 58.3285 60.3594 58.2855 60.2877 58.2425C60.216 58.1994 60.13 58.1708 60.0583 58.1278L60.0869 57.9414C60.173 57.927 60.259 57.9127 60.345 57.8983C60.4311 57.884 60.5171 57.8697 60.6031 57.8697L61.1623 57.8123L60.7035 58.3285C60.1156 58.988 59.4417 59.5759 58.7392 60.1064C58.3807 60.3645 58.0223 60.6225 57.6495 60.852C57.4631 60.9667 57.2767 61.0814 57.0903 61.1961C56.9039 61.3108 56.7032 61.4111 56.5168 61.5115C56.1297 61.7122 55.7282 61.8986 55.3268 62.0563C55.126 62.1424 54.911 62.2141 54.7102 62.2857L54.3948 62.3861L54.0794 62.4865C53.6636 62.6155 53.2191 62.7302 52.789 62.8306C52.3588 62.9309 51.9143 63.0313 51.4699 63.1173C51.0254 63.2034 50.5809 63.2607 50.1221 63.2894C49.6633 63.3181 49.2045 63.3324 48.7457 63.3037C48.5163 63.2894 48.2725 63.2607 48.0431 63.232L47.7277 63.1747H47.6847H47.6703H47.656H47.6416L47.5556 63.1604L47.3836 63.1173C46.9391 63.017 46.5089 62.8736 46.0931 62.7159C45.2615 62.4004 44.5016 62.0133 43.7274 61.6549C43.3403 61.4685 42.9675 61.2964 42.566 61.1387C42.1789 60.981 41.7918 60.8233 41.376 60.7086L41.4763 60.4935Z" fill="#AD4E3C"/>
<path d="M50.338 38.3558L50.4957 39.0727L50.6535 39.7752L50.8255 40.4778L51.0119 41.1803L51.1983 41.8829L51.399 42.5711L51.5998 43.2593L51.8148 43.9476L52.0299 44.6358L52.2593 45.3097L52.503 45.9835C52.5891 46.2129 52.6608 46.428 52.7468 46.6574L53.0049 47.3313L53.263 48.0052L53.5354 48.6647L53.8221 49.3243L53.3777 48.8655L53.7504 49.0232L54.1089 49.2096L54.453 49.4246L54.7684 49.6684C54.8688 49.7544 54.9692 49.8548 55.0695 49.9408L55.342 50.2419C55.428 50.3423 55.4997 50.457 55.5857 50.5717C55.6574 50.6864 55.7291 50.8011 55.8008 50.9158C55.8581 51.0305 55.9298 51.1595 55.9872 51.2742C56.0445 51.4033 56.0875 51.5323 56.1305 51.6614C56.1736 51.7904 56.2022 51.9194 56.2452 52.0628C56.2739 52.1919 56.2883 52.3352 56.3169 52.4643C56.3313 52.6077 56.3456 52.7367 56.3456 52.8801C56.3456 53.0235 56.3456 53.1525 56.3313 53.2959C56.3169 53.4393 56.2883 53.5683 56.2739 53.7117C56.2452 53.8551 56.2022 53.9841 56.1736 54.1131L56.0015 54.787L55.3706 54.83C55.2703 54.83 55.1699 54.8444 55.0695 54.8444C54.9692 54.8444 54.8688 54.8587 54.7684 54.8587C54.6681 54.873 54.5677 54.873 54.4817 54.8874C54.3813 54.9017 54.2953 54.9161 54.1949 54.9161C54.0946 54.9304 54.0085 54.9447 53.9082 54.9591C53.8221 54.9734 53.7218 54.9877 53.6357 55.0164C53.5497 55.0451 53.4637 55.0594 53.3777 55.0881C53.3346 55.1024 53.2916 55.1168 53.2486 55.1311C53.2056 55.1455 53.1626 55.1598 53.1339 55.1741C53.0909 55.1885 53.0479 55.2028 53.0192 55.2172L52.9045 55.2745C52.8328 55.3175 52.7468 55.3462 52.6894 55.4035L52.5891 55.4752L52.4887 55.5469C52.4744 55.5613 52.46 55.5756 52.4457 55.5899L52.4027 55.633C52.374 55.6616 52.3453 55.6903 52.3167 55.7333L52.245 55.8337L52.202 55.891C52.202 55.891 52.202 55.9054 52.202 55.891V55.9054L52.1876 55.9197L52.1733 55.9484C52.1303 56.0201 52.0872 56.1061 52.0442 56.2065C52.0012 56.3068 51.9725 56.4072 51.9439 56.5076L51.8435 56.823H51.6428C51.5998 56.7083 51.5711 56.6079 51.5424 56.4932C51.5137 56.3785 51.4851 56.2638 51.4851 56.1491C51.4707 56.0201 51.4707 55.9054 51.4707 55.762V55.719V55.7046V55.6903C51.4707 55.676 51.4707 55.676 51.4707 55.676L51.4851 55.5756L51.5281 55.3749C51.5424 55.3175 51.5711 55.2458 51.5854 55.1885L51.6141 55.0881C51.6284 55.0594 51.6428 55.0308 51.6571 55.0021L51.7575 54.8157C51.8005 54.7583 51.8292 54.701 51.8722 54.6436L51.9295 54.5576L52.0012 54.4859C52.0442 54.4286 52.0872 54.3856 52.1303 54.3282C52.1733 54.2852 52.2306 54.2422 52.2736 54.1848C52.3167 54.1418 52.374 54.0988 52.4314 54.0558C52.4887 54.0128 52.5317 53.9698 52.5891 53.9411C52.6464 53.8981 52.6894 53.8694 52.7468 53.8264C52.8615 53.7547 52.9619 53.683 53.0766 53.6256C53.1913 53.5683 53.306 53.5109 53.4207 53.4536C53.5354 53.4106 53.6501 53.3532 53.7648 53.3102C53.8795 53.2672 53.9942 53.2242 54.1089 53.1955C54.2236 53.1525 54.3383 53.1238 54.453 53.0951C54.6824 53.0235 54.9118 52.9804 55.1412 52.9374L54.3383 53.6543C54.3383 53.5826 54.3526 53.4966 54.3526 53.4249C54.3526 53.3532 54.3526 53.2672 54.3526 53.1955C54.3383 53.1238 54.3383 53.0378 54.3383 52.9661C54.324 52.8944 54.324 52.8084 54.3096 52.7367C54.2953 52.665 54.2809 52.579 54.2666 52.5073C54.2379 52.4356 54.2236 52.3496 54.2093 52.2779C54.1806 52.2062 54.1519 52.1202 54.1376 52.0485C54.1089 51.9768 54.0802 51.8908 54.0515 51.8191C54.0085 51.7474 53.9799 51.6757 53.9512 51.5897C53.9082 51.518 53.8651 51.4463 53.8365 51.3746L53.7074 51.1739C53.6501 51.1165 53.6071 51.0448 53.5497 50.9731L53.3777 50.7867L53.1913 50.6147C53.1196 50.5717 53.0622 50.5143 52.9905 50.4713L52.7755 50.3423L52.4027 50.1272L52.331 49.8835L52.1159 49.1809L51.9009 48.4783L51.7001 47.7758L51.5137 47.0589C51.4564 46.8151 51.399 46.5857 51.3417 46.342L51.184 45.6251L51.0262 44.9082L50.8829 44.1913L50.7538 43.4744L50.6391 42.7432L50.5388 42.0119L50.4527 41.2807L50.381 40.5495L50.3093 39.8182L50.252 39.087L50.209 38.3558H50.338Z" fill="#AD4E3C"/>
<path d="M48.7605 82.8463C44.3014 82.8463 39.7993 81.2978 36.3438 78.5019C32.4009 75.3046 29.6624 70.6304 27.9848 64.1783L27.9561 64.0923C26.0779 56.8373 25.0886 50.8298 24.8305 45.1663C24.5724 39.2304 25.9488 33.7676 28.7304 29.6813C27.0242 26.7277 27.3109 22.7131 29.519 20.0893C31.8704 17.279 36.1431 16.3184 39.4695 17.8669C39.5555 17.9099 39.6559 17.9529 39.7419 17.9959C40.0287 18.1393 40.2867 18.2684 40.5162 18.297C40.8029 18.34 41.19 18.2684 41.5772 18.1823H41.5915C47.2836 16.9349 53.1335 16.2467 58.9547 16.1033C60.3311 16.0747 61.7936 16.1033 63.0267 16.9063C64.2454 17.6948 64.8763 18.9853 65.4211 20.2327C71.5147 34.3985 73.1923 49.8834 70.1526 63.8342C68.5181 71.3186 65.6648 76.3656 61.4065 79.2618C58.0514 81.5559 53.9795 82.3015 51.1979 82.6742C50.4093 82.7889 49.5777 82.8463 48.7605 82.8463ZM36.0571 19.1C34.1501 19.1 32.2145 19.9029 31.0101 21.351C29.2322 23.473 29.1032 26.8998 30.6947 29.1652L31.0961 29.7387L30.6803 30.3122C27.8988 34.0974 26.508 39.3451 26.7661 45.1089C27.0098 50.629 27.9848 56.5076 29.8344 63.6192L29.8631 63.7052C31.4259 69.7414 33.9494 74.0858 37.5625 77.0108C41.2474 79.9787 46.2513 81.3982 50.9542 80.7673C53.535 80.4232 57.3202 79.735 60.3168 77.6847C64.1307 75.0752 66.7259 70.4153 68.2457 63.4471C71.1993 49.8978 69.5648 34.8286 63.6289 21.0356C63.1987 20.0176 62.7399 19.0713 61.98 18.5695C61.2058 18.0676 60.1304 18.0533 59.0121 18.082C53.3056 18.211 47.5847 18.8992 42.0073 20.1179H41.993C41.4625 20.2327 40.8603 20.3617 40.2007 20.2613C39.6846 20.1753 39.2544 19.9602 38.8816 19.7738C38.7956 19.7308 38.7239 19.6878 38.6379 19.6591C37.8493 19.272 36.9604 19.1 36.0571 19.1Z" fill="#AD4E3C"/>
<path d="M51.3269 76.3369C49.8501 76.3369 48.359 76.0358 46.9969 75.4479C45.4054 74.7597 43.8139 73.6414 42.1507 72.0068C41.9929 71.8491 41.8926 71.6341 41.8926 71.4047C41.8926 71.1753 41.9929 70.9458 42.165 70.7881C42.251 70.7021 42.3801 70.6591 42.4948 70.6591C42.6238 70.6591 42.7529 70.7164 42.8389 70.8025C43.8855 71.8491 45.5201 73.3546 47.513 74.2149C48.7174 74.731 50.0222 75.0035 51.3126 75.0035C51.4129 75.0035 51.5277 75.0035 51.628 75.0035C54.2519 74.9174 56.8327 73.6557 58.5246 71.6484C59.3275 70.6878 59.7289 69.7845 59.7146 68.9385C59.7003 68.5514 59.5712 68.1213 59.3275 67.7772C59.2414 67.6481 59.0837 67.5764 58.926 67.5764C58.797 67.5764 58.6823 67.6194 58.5962 67.7055C58.4672 67.8202 58.3382 67.9205 58.1804 67.9922C57.8077 68.1643 57.4205 68.193 57.1338 68.193C57.0047 68.193 56.89 68.193 56.7753 68.1786C56.5172 68.1643 56.2592 68.1643 56.0011 68.1643C53.3056 68.1643 50.6961 68.6948 48.2156 69.7415L47.1976 70.1716L47.3266 69.0246L47.513 69.0532C47.5274 69.0532 47.5561 69.0532 47.5704 69.0532C47.7281 69.0532 47.8858 68.9672 47.9719 68.8382C48.0579 68.7091 48.0722 68.5371 48.0149 68.3794V68.365C50.524 67.347 53.2769 66.8165 55.9867 66.8165C56.2592 66.8165 56.5316 66.8165 56.804 66.8309H56.847C56.9187 66.8309 56.9904 66.8309 57.0621 66.8309C57.2341 66.8309 57.3775 66.7448 57.4779 66.6158C57.5639 66.4868 57.5783 66.3147 57.5209 66.157L57.3058 65.6695L58.4242 65.7699C59.858 65.8989 61.0337 67.304 61.0767 68.9099C61.1054 70.0856 60.5892 71.3043 59.5712 72.523C57.6356 74.8171 54.682 76.2509 51.6854 76.3512C51.5707 76.3369 51.4416 76.3369 51.3269 76.3369Z" fill="#AD4E3C"/>
<path d="M27.1964 59.1314C24.888 59.1314 22.9667 57.583 21.9057 56.0631C20.6727 54.2852 20.1278 52.1632 19.6547 50.285L18.6941 46.4997C18.3786 45.2523 17.8481 43.159 18.8661 41.4815C19.7264 40.062 21.6046 39.3165 23.3252 39.7036C24.8307 40.0477 26.1498 41.166 26.8667 42.7002L25.0888 43.5175C24.6299 42.5425 23.7983 41.8112 22.8951 41.5962C21.9774 41.3955 20.9738 41.7682 20.5293 42.4851C19.9701 43.3884 20.2569 44.7218 20.5723 46.0123L21.533 49.7975C21.9918 51.604 22.4649 53.4536 23.4973 54.9448C24.5439 56.4503 26.1211 57.3105 27.5405 57.1528L27.7556 59.0884C27.5836 59.1171 27.3828 59.1314 27.1964 59.1314Z" fill="#AD4E3C"/>
<path d="M33.8918 48.7077C33.562 48.7077 33.1606 48.6791 32.7591 48.507C32.2143 48.2776 31.8558 47.8761 31.5691 47.5177C30.293 45.8832 29.0886 43.2163 28.9882 40.6355C28.1423 40.7789 27.5114 41.0083 26.4934 41.3954L26.2927 41.4671L25.6045 39.6462L25.8052 39.5745C27.0096 39.1157 27.8555 38.8002 29.189 38.6425C29.3467 38.2984 29.6908 37.983 30.2787 37.8683C34.9815 36.9507 39.7847 36.5922 44.5735 36.7643C46.1364 36.8216 47.9286 36.965 49.5058 37.8109L50.2227 38.1981L49.9789 38.9723C49.1187 41.6822 48.029 44.349 46.7386 46.8725C46.6239 47.1019 46.4375 47.446 46.122 47.7328C45.7062 48.0912 45.2188 48.2059 44.803 48.2776C43.7993 48.4497 42.81 48.4783 41.8493 48.507L34.1786 48.7221C34.0782 48.7077 33.9922 48.7077 33.8918 48.7077ZM30.9525 39.9329C30.8378 42.141 31.9132 44.7792 33.1032 46.3133C33.1749 46.3993 33.3756 46.6574 33.5047 46.7148C33.6337 46.7721 33.8918 46.7578 34.1069 46.7578L41.7777 46.5427C42.7096 46.514 43.5986 46.4854 44.4588 46.342C44.7313 46.299 44.803 46.256 44.8316 46.2416C44.8746 46.1986 44.9463 46.0409 44.9893 45.9692C46.1077 43.7898 47.0683 41.5244 47.8426 39.2017C46.7959 38.8433 45.6346 38.7572 44.5019 38.7142C40.0428 38.5422 35.555 38.8719 31.1533 39.6892C31.1102 39.7752 31.0386 39.8613 30.9525 39.9329Z" fill="#AD4E3C"/>
<path d="M57.2928 47.231C57.0061 47.2453 56.705 47.2453 56.4039 47.231C55.9881 47.2166 55.5006 47.1593 55.0561 46.8582C54.712 46.6288 54.497 46.3133 54.3536 46.0983C52.8051 43.8329 51.4286 41.4384 50.2816 38.9436L49.9375 38.2124L50.597 37.7393C52.0022 36.7356 53.7084 36.3772 55.1995 36.1334C59.7446 35.3735 64.3901 35.1298 68.9926 35.4309C69.8098 35.4882 70.197 35.947 70.3117 36.4058C71.1719 39.2304 70.2256 42.7719 68.9926 44.8652C68.7632 45.2523 68.4621 45.6825 67.9603 45.9692C67.4871 46.2416 66.9853 46.299 66.6268 46.3277L59.2715 47.0732C58.6263 47.1449 57.9667 47.2166 57.2928 47.231ZM52.418 38.9293C53.436 41.037 54.626 43.073 55.9594 45.0086C56.0024 45.0803 56.1028 45.2093 56.1315 45.238C56.1458 45.2523 56.2318 45.2667 56.4756 45.281C57.3215 45.3097 58.1675 45.2237 59.0564 45.1376L66.4118 44.392C66.6125 44.3777 66.8562 44.349 66.9566 44.2917C67.0713 44.22 67.229 43.9619 67.2864 43.8759C68.2327 42.2844 68.9352 39.6462 68.5624 37.5672C68.4764 37.5099 68.4047 37.4382 68.333 37.3665C64.046 37.1371 59.7303 37.3665 55.4863 38.0834C54.4539 38.2554 53.3643 38.4705 52.418 38.9293ZM69.6378 36.0617L69.6521 36.5779L70.0392 36.4632C70.0106 36.3772 69.9819 36.2911 69.9245 36.2194C69.8959 36.1764 69.8672 36.1334 69.8242 36.0904C69.7668 36.0617 69.7095 36.0617 69.6378 36.0617Z" fill="#AD4E3C"/>
<path d="M51.2562 38.8433H49.0625V40.7932H51.2562V38.8433Z" fill="#AD4E3C"/>
<path d="M25.3039 41.9403C25.1605 42.0693 24.9454 42.055 24.8307 41.9116C23.4973 40.3201 21.9058 37.3665 21.619 35.4739C20.9882 31.2872 20.9595 28.1185 21.5474 25.2223C22.2212 21.8672 23.2822 19.3007 24.8451 17.3077C24.9885 17.1213 24.8881 16.8346 24.6587 16.7916C24.3002 16.7199 23.9705 16.7485 23.6407 16.8489L17.4324 18.9996C17.0739 19.1143 16.8302 18.6268 17.1456 18.4117L22.7948 15.0997L22.8091 15.0854C23.0959 14.899 22.9668 14.4688 22.6227 14.4832C22.551 14.4832 22.4793 14.4832 22.4076 14.4975L17.7765 15.5298C17.418 15.5442 17.3033 15.0567 17.6188 14.9133L21.9632 12.6479C29.3185 9.10644 40.8462 5.52196 51.0978 6.05247C54.3238 6.22452 56.962 6.85539 59.1557 7.95941C61.9372 9.37886 64.1023 12.7053 64.9339 15.2001C65.278 16.218 65.6651 19.0283 65.5504 20.4477C65.5361 20.6485 65.3497 20.7775 65.1633 20.7488L63.8872 20.5051C63.7295 20.4764 63.6148 20.333 63.6291 20.161C63.6865 19.1 63.3854 16.6625 63.0986 15.8166C62.3674 13.6229 60.4748 10.8127 58.2811 9.6943C56.3168 8.71932 53.9367 8.16014 50.9831 8.00242C44.2156 7.64397 35.7562 9.22114 27.9134 12.2178C27.598 12.3325 27.641 12.8056 27.9851 12.8486C28.4726 12.9203 30.3365 13.2788 30.824 13.3791C30.996 13.4078 31.1107 13.5655 31.0821 13.7376L31.1107 13.9383C31.0964 14.1104 30.953 14.2251 30.7953 14.2251C30.1644 14.2394 27.9994 15.1857 27.3829 15.3148C27.0961 15.3721 27.0244 15.7449 27.2682 15.9026L27.9134 16.3471C28.0854 16.4618 28.0998 16.7055 27.9564 16.8489L27.3972 17.3938C25.4759 19.2577 24.2285 21.8672 23.483 25.595C22.9525 28.2619 22.9811 31.2155 23.5833 35.1728C23.8127 36.6496 25.2179 39.2734 26.3219 40.6068C26.4366 40.7359 26.4222 40.9366 26.2932 41.0513L25.3039 41.9403Z" fill="#AD4E3C"/>
<path d="M51.7867 37.6962H49.0625V39.8182H51.7867V37.6962Z" fill="#AD4E3C"/>
<path d="M40.6735 43.4744C40.5158 43.4744 40.3581 43.4601 40.2004 43.4314C39.5551 43.331 39.039 43.116 38.6375 42.7575C38.4225 42.5568 38.2504 42.3274 38.1357 42.0693C38.0927 42.0263 38.064 41.9689 38.0353 41.9259C37.8489 41.5818 37.8203 41.1517 37.9493 40.7932C38.2934 39.9186 39.2541 39.5888 40.0426 39.5602C40.8599 39.5315 41.9066 39.8182 42.3654 40.6929C42.5088 40.9653 42.5804 41.2807 42.5804 41.6105C42.5804 42.227 42.308 42.7862 41.8635 43.116C41.5338 43.3597 41.1323 43.4744 40.6735 43.4744ZM38.8383 41.1803L38.9386 41.1947C38.8956 41.4671 39.0246 41.7969 39.2827 42.0263C39.5265 42.2557 39.8849 42.3991 40.3437 42.4564C40.6305 42.4994 41.032 42.5138 41.29 42.3274C41.4908 42.184 41.6055 41.9116 41.6055 41.6105C41.6055 41.4384 41.5625 41.2807 41.5051 41.1517C41.2614 40.6785 40.5875 40.5208 40.0856 40.5351C39.5982 40.5495 39.0246 40.7502 38.8813 41.1373C38.8526 41.166 38.8526 41.166 38.8383 41.1803Z" fill="#AD4E3C"/>
<path d="M59.786 42.1409C59.5853 42.1409 59.3702 42.1123 59.1838 42.0549C58.3092 41.8112 57.6353 41.0082 57.5206 40.105C57.5063 39.9616 57.4919 39.7322 57.578 39.4884C57.8217 38.8289 58.5959 38.7429 58.8827 38.6998L58.9831 38.6855L59.0261 38.6282C59.0691 38.5708 59.1551 38.4561 59.3272 38.3988C59.5423 38.3271 59.7143 38.3988 59.786 38.4274L60.6176 38.7715C60.8757 38.8719 61.1624 38.9866 61.4205 39.1873C61.7646 39.4454 61.9654 39.8039 62.0084 40.1767C62.0514 40.5494 61.9223 40.9222 61.6356 41.2663C61.1911 41.8255 60.4885 42.1409 59.786 42.1409ZM59.9294 39.5601L58.9974 39.6748C58.5243 39.7322 58.4812 39.8325 58.4812 39.8469C58.4812 39.8469 58.4669 39.8899 58.4812 39.9903C58.5386 40.5064 58.9544 40.9796 59.4419 41.123C59.9437 41.2663 60.5316 41.0799 60.8613 40.6785C60.976 40.5351 61.0334 40.4061 61.0191 40.2914C61.0047 40.191 60.933 40.0763 60.804 39.9903C60.6463 39.8756 60.4455 39.7895 60.2305 39.7035L59.9294 39.5601Z" fill="#AD4E3C"/>
<path d="M35.871 34.6996C35.6416 34.5132 35.6273 34.1835 35.828 33.9684C36.6166 33.1942 37.6489 32.6923 38.7529 32.5776C39.857 32.4629 40.9753 32.7497 41.8929 33.3519C42.1367 33.5096 42.1797 33.8537 41.9933 34.0688C41.8356 34.2552 41.5632 34.2982 41.3624 34.1691C40.6312 33.6817 39.7136 33.4522 38.8533 33.5383C37.9787 33.6243 37.1328 34.0401 36.5162 34.6566C36.3442 34.843 36.0574 34.8574 35.871 34.6996Z" fill="#AD4E3C"/>
<path d="M64.7037 33.3232C64.503 33.4666 64.2306 33.4522 64.0585 33.2658C63.4133 32.5633 62.5387 32.0901 61.6067 31.9467C60.6604 31.8034 59.6855 31.9898 58.8682 32.4629C58.6531 32.592 58.3807 32.5203 58.2373 32.3195C58.0653 32.0901 58.137 31.746 58.3951 31.6026C59.413 31.0291 60.6031 30.7997 61.7645 30.9861C62.9258 31.1725 63.9868 31.746 64.7754 32.6063C64.9618 32.8214 64.9331 33.1511 64.7037 33.3232Z" fill="#AD4E3C"/>
</svg>
