<svg width="52" height="2" viewBox="0 0 52 2" fill="none" xmlns="http://www.w3.org/2000/svg">
<path d="M0.219891 1.96438L1.99975 0.29313L3.7796 1.96438C3.83017 2.01187 3.91194 2.01187 3.96226 1.96438C4.01258 1.91711 4.01258 1.8403 3.96226 1.79303L2.09142 0.0356793V0.035452C2.06723 0.0127269 2.03433 0 1.99997 0C1.96586 0 1.93296 0.0127264 1.90876 0.035452L0.0379226 1.7928V1.79303C-0.0126409 1.8403 -0.0126409 1.91711 0.0379226 1.96438C0.0882439 2.01187 0.170015 2.01187 0.220336 1.96438H0.219891Z" fill="#AD4E3C"/>
<path d="M16.2199 1.96438L17.9997 0.29313L19.7796 1.96438C19.8302 2.01187 19.9119 2.01187 19.9623 1.96438C20.0126 1.91711 20.0126 1.8403 19.9623 1.79303L18.0914 0.0356793V0.035452C18.0672 0.0127269 18.0343 0 18 0C17.9659 0 17.933 0.0127264 17.9088 0.035452L16.0379 1.7928V1.79303C15.9874 1.8403 15.9874 1.91711 16.0379 1.96438C16.0882 2.01187 16.17 2.01187 16.2203 1.96438H16.2199Z" fill="#AD4E3C"/>
<path d="M28.2199 1.96438L29.9997 0.29313L31.7796 1.96438C31.8302 2.01187 31.9119 2.01187 31.9623 1.96438C32.0126 1.91711 32.0126 1.8403 31.9623 1.79303L30.0914 0.0356793V0.035452C30.0672 0.0127269 30.0343 0 30 0C29.9659 0 29.933 0.0127264 29.9088 0.035452L28.0379 1.7928V1.79303C27.9874 1.8403 27.9874 1.91711 28.0379 1.96438C28.0882 2.01187 28.17 2.01187 28.2203 1.96438H28.2199Z" fill="#AD4E3C"/>
<path d="M44.2199 1.96438L45.9997 0.29313L47.7796 1.96438C47.8302 2.01187 47.9119 2.01187 47.9623 1.96438C48.0126 1.91711 48.0126 1.8403 47.9623 1.79303L46.0914 0.0356793V0.035452C46.0672 0.0127269 46.0343 0 46 0C45.9659 0 45.933 0.0127264 45.9088 0.035452L44.0379 1.7928V1.79303C43.9874 1.8403 43.9874 1.91711 44.0379 1.96438C44.0882 2.01187 44.17 2.01187 44.2203 1.96438H44.2199Z" fill="#AD4E3C"/>
<path d="M8.21989 1.96438L9.99975 0.29313L11.7796 1.96438C11.8302 2.01187 11.9119 2.01187 11.9623 1.96438C12.0126 1.91711 12.0126 1.8403 11.9623 1.79303L10.0914 0.0356793V0.035452C10.0672 0.0127269 10.0343 0 9.99997 0C9.96586 0 9.93296 0.0127264 9.90876 0.035452L8.03792 1.7928V1.79303C7.98736 1.8403 7.98736 1.91711 8.03792 1.96438C8.08824 2.01187 8.17002 2.01187 8.22034 1.96438H8.21989Z" fill="#AD4E3C"/>
<path d="M24.2199 1.96438L25.9997 0.29313L27.7796 1.96438C27.8302 2.01187 27.9119 2.01187 27.9623 1.96438C28.0126 1.91711 28.0126 1.8403 27.9623 1.79303L26.0914 0.0356793V0.035452C26.0672 0.0127269 26.0343 0 26 0C25.9659 0 25.933 0.0127264 25.9088 0.035452L24.0379 1.7928V1.79303C23.9874 1.8403 23.9874 1.91711 24.0379 1.96438C24.0882 2.01187 24.17 2.01187 24.2203 1.96438H24.2199Z" fill="#AD4E3C"/>
<path d="M36.2199 1.96438L37.9997 0.29313L39.7796 1.96438C39.8302 2.01187 39.9119 2.01187 39.9623 1.96438C40.0126 1.91711 40.0126 1.8403 39.9623 1.79303L38.0914 0.0356793V0.035452C38.0672 0.0127269 38.0343 0 38 0C37.9659 0 37.933 0.0127264 37.9088 0.035452L36.0379 1.7928V1.79303C35.9874 1.8403 35.9874 1.91711 36.0379 1.96438C36.0882 2.01187 36.17 2.01187 36.2203 1.96438H36.2199Z" fill="#AD4E3C"/>
<path d="M4.21989 1.96438L5.99975 0.29313L7.7796 1.96438C7.83017 2.01187 7.91194 2.01187 7.96226 1.96438C8.01258 1.91711 8.01258 1.8403 7.96226 1.79303L6.09142 0.0356793V0.035452C6.06723 0.0127269 6.03433 0 5.99997 0C5.96586 0 5.93296 0.0127264 5.90876 0.035452L4.03792 1.7928V1.79303C3.98736 1.8403 3.98736 1.91711 4.03792 1.96438C4.08824 2.01187 4.17002 2.01187 4.22034 1.96438H4.21989Z" fill="#AD4E3C"/>
<path d="M20.2199 1.96438L21.9997 0.29313L23.7796 1.96438C23.8302 2.01187 23.9119 2.01187 23.9623 1.96438C24.0126 1.91711 24.0126 1.8403 23.9623 1.79303L22.0914 0.0356793V0.035452C22.0672 0.0127269 22.0343 0 22 0C21.9659 0 21.933 0.0127264 21.9088 0.035452L20.0379 1.7928V1.79303C19.9874 1.8403 19.9874 1.91711 20.0379 1.96438C20.0882 2.01187 20.17 2.01187 20.2203 1.96438H20.2199Z" fill="#AD4E3C"/>
<path d="M32.2199 1.96438L33.9997 0.29313L35.7796 1.96438C35.8302 2.01187 35.9119 2.01187 35.9623 1.96438C36.0126 1.91711 36.0126 1.8403 35.9623 1.79303L34.0914 0.0356793V0.035452C34.0672 0.0127269 34.0343 0 34 0C33.9659 0 33.933 0.0127264 33.9088 0.035452L32.0379 1.7928V1.79303C31.9874 1.8403 31.9874 1.91711 32.0379 1.96438C32.0882 2.01187 32.17 2.01187 32.2203 1.96438H32.2199Z" fill="#AD4E3C"/>
<path d="M48.2199 1.96438L49.9997 0.29313L51.7796 1.96438C51.8302 2.01187 51.9119 2.01187 51.9623 1.96438C52.0126 1.91711 52.0126 1.8403 51.9623 1.79303L50.0914 0.0356793V0.035452C50.0672 0.0127269 50.0343 0 50 0C49.9659 0 49.933 0.0127264 49.9088 0.035452L48.0379 1.7928V1.79303C47.9874 1.8403 47.9874 1.91711 48.0379 1.96438C48.0882 2.01187 48.17 2.01187 48.2203 1.96438H48.2199Z" fill="#AD4E3C"/>
<path d="M12.2199 1.96438L13.9997 0.29313L15.7796 1.96438C15.8302 2.01187 15.9119 2.01187 15.9623 1.96438C16.0126 1.91711 16.0126 1.8403 15.9623 1.79303L14.0914 0.0356793V0.035452C14.0672 0.0127269 14.0343 0 14 0C13.9659 0 13.933 0.0127264 13.9088 0.035452L12.0379 1.7928V1.79303C11.9874 1.8403 11.9874 1.91711 12.0379 1.96438C12.0882 2.01187 12.17 2.01187 12.2203 1.96438H12.2199Z" fill="#AD4E3C"/>
<path d="M28.2199 1.96438L29.9997 0.29313L31.7796 1.96438C31.8302 2.01187 31.9119 2.01187 31.9623 1.96438C32.0126 1.91711 32.0126 1.8403 31.9623 1.79303L30.0914 0.0356793V0.035452C30.0672 0.0127269 30.0343 0 30 0C29.9659 0 29.933 0.0127264 29.9088 0.035452L28.0379 1.7928V1.79303C27.9874 1.8403 27.9874 1.91711 28.0379 1.96438C28.0882 2.01187 28.17 2.01187 28.2203 1.96438H28.2199Z" fill="#AD4E3C"/>
<path d="M40.2199 1.96438L41.9997 0.29313L43.7796 1.96438C43.8302 2.01187 43.9119 2.01187 43.9623 1.96438C44.0126 1.91711 44.0126 1.8403 43.9623 1.79303L42.0914 0.0356793V0.035452C42.0672 0.0127269 42.0343 0 42 0C41.9659 0 41.933 0.0127264 41.9088 0.035452L40.0379 1.7928V1.79303C39.9874 1.8403 39.9874 1.91711 40.0379 1.96438C40.0882 2.01187 40.17 2.01187 40.2203 1.96438H40.2199Z" fill="#AD4E3C"/>
</svg>
