<svg width="48" height="68" viewBox="0 0 48 68" fill="none" xmlns="http://www.w3.org/2000/svg">
<path d="M8.78139 46.0272C6.76877 46.0272 5.09366 44.6771 4.1686 43.352C3.09353 41.8019 2.6185 39.9518 2.20598 38.3142L1.36842 35.014C1.09341 33.9264 0.630876 32.1013 1.51843 30.6387C2.26848 29.4011 3.90608 28.7511 5.40618 29.0886C6.71876 29.3886 7.86884 30.3637 8.49388 31.7013L6.94378 32.4138C6.54375 31.5638 5.81871 30.9262 5.03116 30.7387C4.2311 30.5637 3.35605 30.8887 2.96852 31.5138C2.48099 32.3013 2.73101 33.4639 3.00603 34.589L3.84358 37.8892C4.24361 39.4643 4.65613 41.0769 5.55619 42.377C6.46875 43.6896 7.84383 44.4396 9.08141 44.3021L9.26892 45.9897C9.11892 46.0147 8.9439 46.0272 8.78139 46.0272Z" fill="#214E34"/>
<path d="M8.49388 31.7013L6.94378 32.4138C6.54375 31.5638 5.81871 30.9262 5.03116 30.7387C4.2311 30.5637 3.35605 30.8887 2.96852 31.5138C2.48099 32.3013 2.73101 33.4639 3.00603 34.589L3.84358 37.8892C4.24361 39.4643 4.65613 41.0769 5.55619 42.377C6.46875 43.6896 7.84383 44.4396 9.08141 44.3021L9.26892 45.9897L8.49388 31.7013Z" fill="#214E34"/>
<path d="M8.49388 31.7013L6.94378 32.4138C6.54375 31.5638 5.81871 30.9262 5.03116 30.7387C4.2311 30.5637 3.35605 30.8887 2.96852 31.5138C2.48099 32.3013 2.73101 33.4639 3.00603 34.589L3.84358 37.8892C4.24361 39.4643 4.65613 41.0769 5.55619 42.377C6.46875 43.6896 7.84383 44.4396 9.08141 44.3021L9.26892 45.9897L8.49388 31.7013Z" fill="#214E34"/>
<path d="M8.4936 31.7013L6.9435 32.4138C6.54347 31.5638 5.81843 30.9262 5.03088 30.7387C4.23082 30.5637 3.35577 30.8887 2.96824 31.5138C2.48071 32.3013 2.73073 33.4639 3.00575 34.589L3.8433 37.8892C4.24333 39.4643 4.65585 41.0769 5.55591 42.377C6.46847 43.6895 7.84355 44.4396 9.08113 44.3021L9.26864 45.9897L8.4936 31.7013Z" fill="#F9F4EF"/>
<path d="M7.23991 31.3352C7.11491 31.4477 6.92739 31.4352 6.82739 31.3102C5.66481 29.9226 4.27722 27.3475 4.02721 25.6974C3.47717 22.0471 3.45217 19.2845 3.9647 16.7593C4.55224 13.8341 5.4773 11.5965 6.83989 9.85887C6.9649 9.69636 6.87739 9.44634 6.67738 9.40884C6.36486 9.34634 6.07734 9.37134 5.78982 9.45884L0.376976 11.334C0.0644566 11.434 -0.148057 11.0089 0.126961 10.8214L5.05227 7.93374L5.06477 7.92124C5.31479 7.75873 5.20228 7.38371 4.90226 7.39621C4.83976 7.39621 4.77726 7.39621 4.71475 7.40871L0.676996 8.30877C0.364476 8.32127 0.264469 7.89624 0.539487 7.77123L4.32723 5.79611C10.7401 2.70841 20.7908 -0.416786 29.7288 0.0457437C32.5415 0.195753 34.8417 0.745788 36.7543 1.70835C39.1794 2.94593 41.0671 5.84611 41.7921 8.02125C42.0921 8.90881 42.4296 11.359 42.3296 12.5965C42.3171 12.7716 42.1546 12.8841 41.9921 12.8591L40.8796 12.6465C40.742 12.6215 40.642 12.4965 40.6545 12.3465C40.7045 11.4215 40.442 9.29633 40.192 8.55878C39.5545 6.64616 37.9044 4.19601 35.9917 3.22095C34.2791 2.37089 32.204 1.88336 29.6288 1.74585C23.7285 1.43333 16.353 2.80842 9.51506 5.42109C9.24004 5.52109 9.27754 5.93362 9.57756 5.97112C10.0026 6.03362 11.6277 6.34614 12.0527 6.43365C12.2027 6.45865 12.3027 6.59616 12.2777 6.74617L12.3027 6.92118C12.2902 7.07119 12.1652 7.1712 12.0277 7.1712C11.4777 7.1837 9.59006 8.00875 9.05253 8.12126C8.80251 8.17126 8.74001 8.49628 8.95252 8.63379L9.51506 9.02131C9.66507 9.12132 9.67757 9.33383 9.55256 9.45884L9.06503 9.93387C7.38992 11.559 6.30235 13.8341 5.65231 17.0843C5.18978 19.4095 5.21478 21.9846 5.73982 25.4349C5.93983 26.7224 7.16491 29.0101 8.12747 30.1727C8.22747 30.2852 8.21497 30.4602 8.10247 30.5602L7.23991 31.3352Z" fill="#214E34"/>
<path d="M41.9921 12.8591L40.8796 12.6465C40.742 12.6215 40.642 12.4965 40.6545 12.3465C40.7045 11.4215 40.442 9.29633 40.192 8.55878C39.5545 6.64616 37.9044 4.19601 35.9917 3.22095C34.2791 2.37089 32.204 1.88336 29.6288 1.74585C23.7285 1.43333 16.353 2.80842 9.51506 5.42109C9.24004 5.52109 9.27754 5.93362 9.57756 5.97112C10.0026 6.03362 11.6277 6.34614 12.0527 6.43365C12.2027 6.45865 12.3027 6.59616 12.2777 6.74617L12.3027 6.92118C12.2902 7.07119 12.1652 7.1712 12.0277 7.1712C11.4777 7.1837 9.59006 8.00875 9.05253 8.12126C8.80251 8.17126 8.74001 8.49628 8.95252 8.63379L9.51506 9.02131C9.66507 9.12132 9.67757 9.33383 9.55256 9.45884L9.06503 9.93387C7.38992 11.559 6.30235 13.8341 5.65231 17.0843C5.18978 19.4095 5.21478 21.9846 5.73982 25.4349C5.93983 26.7224 7.16491 29.0101 8.12747 30.1727C8.22747 30.2852 8.21497 30.4602 8.10247 30.5602L41.9921 12.8591Z" fill="#214E34"/>
<path d="M7.23991 31.3352C7.11491 31.4477 6.92739 31.4352 6.82739 31.3102C5.66481 29.9226 4.27722 27.3475 4.02721 25.6974C3.47717 22.0471 3.45217 19.2845 3.9647 16.7593C4.55224 13.8341 5.4773 11.5965 6.83989 9.85887C6.9649 9.69636 6.87739 9.44634 6.67738 9.40884C6.36486 9.34634 6.07734 9.37134 5.78982 9.45884L0.376976 11.334C0.0644566 11.434 -0.148057 11.0089 0.126961 10.8214L5.05227 7.93374L5.06477 7.92124C5.31479 7.75873 5.20228 7.38371 4.90226 7.39621C4.83976 7.39621 4.77726 7.39621 4.71475 7.40871L0.676996 8.30877C0.364476 8.32127 0.264469 7.89624 0.539487 7.77123L4.32723 5.79611C10.7401 2.70841 20.7908 -0.416786 29.7288 0.0457437C32.5415 0.195753 34.8417 0.745788 36.7543 1.70835C39.1794 2.94593 41.0671 5.84611 41.7921 8.02125C42.0921 8.90881 42.4296 11.359 42.3296 12.5965C42.3171 12.7716 42.1546 12.8841 41.9921 12.8591L40.8796 12.6465C40.742 12.6215 40.642 12.4965 40.6545 12.3465C40.7045 11.4215 40.442 9.29633 40.192 8.55878C39.5545 6.64616 37.9044 4.19601 35.9917 3.22095C34.2791 2.37089 32.204 1.88336 29.6288 1.74585C23.7285 1.43333 16.353 2.80842 9.51506 5.42109C9.24004 5.52109 9.27754 5.93362 9.57756 5.97112C10.0026 6.03362 11.6277 6.34614 12.0527 6.43365C12.2027 6.45865 12.3027 6.59616 12.2777 6.74617L12.3027 6.92118C12.2902 7.07119 12.1652 7.1712 12.0277 7.1712C11.4777 7.1837 9.59006 8.00875 9.05253 8.12126C8.80251 8.17126 8.74001 8.49628 8.95252 8.63379L9.51506 9.02131C9.66507 9.12132 9.67757 9.33383 9.55256 9.45884L9.06503 9.93387C7.38992 11.559 6.30235 13.8341 5.65231 17.0843C5.18978 19.4095 5.21478 21.9846 5.73982 25.4349C5.93983 26.7224 7.16491 29.0101 8.12747 30.1727C8.22747 30.2852 8.21497 30.4602 8.10247 30.5602L7.23991 31.3352Z" fill="#214E34"/>
<path d="M16.465 10.9313C14.7332 10.9313 12.9754 11.6596 11.8817 12.9731C10.2672 14.8978 10.15 18.0061 11.5953 20.0609L11.9598 20.5811L11.5822 21.1013C9.05625 24.5346 7.79326 29.2945 8.02763 34.5225C8.24898 39.5295 9.13438 44.8616 10.814 51.3121L10.8401 51.3902C12.2593 56.8653 14.5509 60.8059 17.8321 63.4589C21.1784 66.151 25.7226 67.4385 29.9933 66.8662C32.337 66.5541 35.7745 65.9299 38.4958 64.0701C41.9593 61.7032 44.316 57.4766 45.6962 51.1561C48.3784 38.8662 46.8941 25.1979 41.5035 12.687C41.1129 11.7636 40.6963 10.9053 40.0062 10.4501C39.3031 9.9949 38.3265 9.9819 37.3109 10.0079C32.1287 10.125 26.9335 10.7492 21.8685 11.8546H21.8555C21.3737 11.9587 20.8269 12.0757 20.2279 11.9847C19.7592 11.9067 19.3686 11.7116 19.03 11.5425C18.9519 11.5035 18.8868 11.4645 18.8087 11.4385C18.0925 11.0873 17.2853 10.9313 16.465 10.9313Z" fill="#F9F4EF"/>
<path d="M27.8906 67.197C24.0028 67.197 20.0776 65.847 17.0649 63.4093C13.6272 60.6216 11.2395 56.5464 9.77692 50.921L9.75192 50.846C8.11431 44.5206 7.25176 39.2828 7.02675 34.345C6.80173 29.1696 8.00181 24.4068 10.427 20.8441C8.93937 18.2689 9.18938 14.7687 11.1145 12.4811C13.1646 10.0309 16.8899 9.19337 19.7901 10.5435C19.8651 10.581 19.9526 10.6185 20.0276 10.656C20.2776 10.781 20.5026 10.8935 20.7026 10.9185C20.9526 10.956 21.2902 10.8935 21.6277 10.8185H21.6402C26.603 9.7309 31.7033 9.13086 36.7786 9.00585C37.9787 8.98085 39.2538 9.00585 40.3289 9.7059C41.3914 10.3934 41.9415 11.5185 42.4165 12.6061C47.7293 24.9569 49.1919 38.4577 46.5418 50.621C45.1167 57.1464 42.629 61.5467 38.9163 64.0718C35.9911 66.072 32.4409 66.722 30.0157 67.047C29.3282 67.147 28.6031 67.197 27.8906 67.197ZM16.8149 11.6185C15.1523 11.6185 13.4647 12.3186 12.4146 13.5811C10.8645 15.4313 10.752 18.419 12.1396 20.3941L12.4896 20.8941L12.1271 21.3941C9.70192 24.6944 8.48934 29.2696 8.71435 34.295C8.92687 39.1078 9.77692 44.2331 11.3895 50.4335L11.4145 50.5085C12.7771 55.7713 14.9772 59.5591 18.1274 62.1092C21.3402 64.6969 25.7029 65.9345 29.8032 65.3844C32.0533 65.0844 35.3535 64.4844 37.9662 62.6968C41.2914 60.4216 43.5541 56.3589 44.8792 50.2835C47.4543 38.4702 46.0292 25.3319 40.8539 13.3061C40.4789 12.4186 40.0788 11.5935 39.4163 11.156C38.7413 10.7185 37.8037 10.706 36.8286 10.731C31.8533 10.8435 26.8655 11.4435 22.0027 12.5061H21.9902C21.5277 12.6061 21.0026 12.7186 20.4276 12.6311C19.9776 12.5561 19.6025 12.3686 19.2775 12.2061C19.2025 12.1686 19.14 12.1311 19.065 12.1061C18.3775 11.7685 17.6024 11.6185 16.8149 11.6185Z" fill="#214E34"/>
<path d="M29.9286 61.3246C28.6411 61.3246 27.341 61.0621 26.1534 60.5496C24.7658 59.9495 23.3782 58.9745 21.9281 57.5494C21.7906 57.4119 21.7031 57.2244 21.7031 57.0244C21.7031 56.8244 21.7906 56.6243 21.9406 56.4868C22.0156 56.4118 22.1282 56.3743 22.2282 56.3743C22.3407 56.3743 22.4532 56.4243 22.5282 56.4993C23.4407 57.4119 24.8658 58.7245 26.6034 59.4745C27.6535 59.9245 28.7911 60.1621 29.9161 60.1621C30.0037 60.1621 30.1037 60.1621 30.1912 60.1621C32.4788 60.0871 34.729 58.987 36.204 57.2369C36.9041 56.3993 37.2541 55.6118 37.2416 54.8742C37.2291 54.5367 37.1166 54.1617 36.9041 53.8617C36.8291 53.7492 36.6916 53.6867 36.5541 53.6867C36.4416 53.6867 36.3416 53.7242 36.2666 53.7992C36.154 53.8992 36.0415 53.9867 35.904 54.0492C35.579 54.1992 35.2415 54.2242 34.9915 54.2242C34.879 54.2242 34.779 54.2242 34.6789 54.2117C34.4539 54.1992 34.2289 54.1992 34.0039 54.1992C31.6538 54.1992 29.3786 54.6617 27.216 55.5743L26.3284 55.9493L26.4409 54.9492L26.6034 54.9742C26.6159 54.9742 26.6409 54.9742 26.6534 54.9742C26.7909 54.9742 26.9285 54.8992 27.0035 54.7867C27.0785 54.6742 27.091 54.5242 27.041 54.3867V54.3742C29.2286 53.4866 31.6288 53.0241 33.9914 53.0241C34.2289 53.0241 34.4664 53.0241 34.704 53.0366H34.7415C34.804 53.0366 34.8665 53.0366 34.929 53.0366C35.079 53.0366 35.204 52.9616 35.2915 52.8491C35.3665 52.7366 35.379 52.5866 35.329 52.4491L35.1415 52.024L36.1165 52.1116C37.3666 52.2241 38.3917 53.4491 38.4292 54.8492C38.4542 55.8743 38.0042 56.9369 37.1166 57.9994C35.429 59.9996 32.8538 61.2496 30.2412 61.3371C30.1412 61.3246 30.0287 61.3246 29.9286 61.3246Z" fill="#214E34"/>
<path d="M14.7274 37.2357C14.4399 37.2357 14.0899 37.2107 13.7398 37.0607C13.2648 36.8607 12.9523 36.5106 12.7023 36.1981C11.5897 34.773 10.5396 32.4479 10.4521 30.1977C9.71459 30.3227 9.16456 30.5227 8.277 30.8603L8.10199 30.9228L7.50195 29.3352L7.67696 29.2727C8.72703 28.8726 9.46458 28.5976 10.6272 28.4601C10.7647 28.1601 11.0647 27.8851 11.5772 27.7851C15.6775 26.985 19.8652 26.6725 24.0405 26.8225C25.4031 26.8725 26.9657 26.9975 28.3408 27.7351L28.9658 28.0726L28.7533 28.7476C28.0033 31.1103 27.0532 33.4354 25.9281 35.6356C25.8281 35.8356 25.6656 36.1356 25.3906 36.3856C25.0281 36.6981 24.603 36.7981 24.2405 36.8607C23.3655 37.0107 22.5029 37.0357 21.6654 37.0607L14.9774 37.2482C14.8899 37.2357 14.8149 37.2357 14.7274 37.2357ZM12.1647 29.5852C12.0647 31.5103 13.0023 33.8105 14.0399 35.148C14.1024 35.2231 14.2774 35.4481 14.3899 35.4981C14.5024 35.5481 14.7274 35.5356 14.9149 35.5356L21.6028 35.3481C22.4154 35.3231 23.1905 35.2981 23.9405 35.173C24.178 35.1355 24.2405 35.098 24.2655 35.0855C24.303 35.048 24.3655 34.9105 24.403 34.848C25.3781 32.9479 26.2156 30.9728 26.8907 28.9477C25.9781 28.6351 24.9656 28.5601 23.978 28.5226C20.0903 28.3726 16.1775 28.6601 12.3398 29.3727C12.3023 29.4477 12.2398 29.5227 12.1647 29.5852Z" fill="#214E34"/>
<path d="M35.1297 35.948C34.8797 35.9605 34.6172 35.9605 34.3547 35.948C33.9921 35.9355 33.5671 35.8855 33.1796 35.623C32.8796 35.423 32.692 35.148 32.567 34.9605C31.217 32.9853 30.0169 30.8977 29.0168 28.7226L28.7168 28.085L29.2918 27.6725C30.5169 26.7974 32.0045 26.4849 33.3046 26.2724C37.2673 25.6099 41.3176 25.3974 45.3304 25.6599C46.0429 25.7099 46.3804 26.1099 46.4804 26.5099C47.2305 28.9726 46.4054 32.0603 45.3304 33.8854C45.1303 34.2229 44.8678 34.5979 44.4303 34.848C44.0178 35.0855 43.5802 35.1355 43.2677 35.1605L36.8548 35.8105C36.2923 35.873 35.7172 35.9355 35.1297 35.948ZM30.8794 28.7101C31.767 30.5477 32.8046 32.3228 33.9671 34.0104C34.0046 34.0729 34.0921 34.1854 34.1171 34.2104C34.1296 34.2229 34.2046 34.2354 34.4172 34.2479C35.1547 34.2729 35.8923 34.1979 36.6673 34.1229L43.0802 33.4729C43.2552 33.4604 43.4677 33.4354 43.5552 33.3854C43.6552 33.3229 43.7928 33.0979 43.8428 33.0228C44.6678 31.6353 45.2804 29.3351 44.9553 27.5225C44.8803 27.4725 44.8178 27.41 44.7553 27.3475C41.0176 27.1475 37.2548 27.3475 33.5546 27.9725C32.6545 28.1225 31.7045 28.31 30.8794 28.7101ZM45.8929 26.2099L45.9054 26.6599L46.2429 26.5599C46.2179 26.4849 46.1929 26.4099 46.1429 26.3474C46.1179 26.3099 46.0929 26.2724 46.0554 26.2349C46.0054 26.2099 45.9554 26.2099 45.8929 26.2099Z" fill="#214E34"/>
<path d="M29.8667 28.635H27.9541V30.3351H29.8667V28.635Z" fill="#AD4E3C"/>
<path d="M30.3293 27.635H27.9541V29.4851H30.3293V27.635Z" fill="#214E34"/>
<path d="M20.6405 32.6728C20.503 32.6728 20.3655 32.6603 20.228 32.6353C19.6654 32.5478 19.2154 32.3603 18.8654 32.0478C18.6779 31.8728 18.5278 31.6728 18.4278 31.4477C18.3903 31.4102 18.3653 31.3602 18.3403 31.3227C18.1778 31.0227 18.1528 30.6477 18.2653 30.3352C18.5653 29.5726 19.4029 29.2851 20.0904 29.2601C20.803 29.2351 21.7155 29.4851 22.1156 30.2477C22.2406 30.4852 22.3031 30.7602 22.3031 31.0477C22.3031 31.5853 22.0656 32.0728 21.678 32.3603C21.3905 32.5728 21.0405 32.6728 20.6405 32.6728ZM19.0404 30.6727L19.1279 30.6852C19.0904 30.9227 19.2029 31.2102 19.4279 31.4102C19.6404 31.6103 19.9529 31.7353 20.353 31.7853C20.603 31.8228 20.953 31.8353 21.178 31.6728C21.353 31.5477 21.453 31.3102 21.453 31.0477C21.453 30.8977 21.4155 30.7602 21.3655 30.6477C21.153 30.2352 20.5655 30.0977 20.1279 30.1102C19.7029 30.1227 19.2029 30.2977 19.0779 30.6352C19.0529 30.6602 19.0529 30.6602 19.0404 30.6727Z" fill="#214E34"/>
<path d="M37.3039 31.5102C37.1289 31.5102 36.9414 31.4852 36.7789 31.4352C36.0163 31.2227 35.4288 30.5227 35.3288 29.7351C35.3163 29.6101 35.3038 29.4101 35.3788 29.1976C35.5913 28.6225 36.2663 28.5475 36.5164 28.51L36.6039 28.4975L36.6414 28.4475C36.6789 28.3975 36.7539 28.2975 36.9039 28.2475C37.0914 28.185 37.2414 28.2475 37.3039 28.2725L38.029 28.5725C38.254 28.66 38.504 28.76 38.729 28.9351C39.029 29.1601 39.204 29.4726 39.2415 29.7976C39.279 30.1226 39.1665 30.4477 38.9165 30.7477C38.529 31.2352 37.9164 31.5102 37.3039 31.5102ZM37.4289 29.2601L36.6164 29.3601C36.2038 29.4101 36.1663 29.4976 36.1663 29.5101C36.1663 29.5101 36.1538 29.5476 36.1663 29.6351C36.2163 30.0851 36.5789 30.4977 37.0039 30.6227C37.4414 30.7477 37.954 30.5852 38.2415 30.2351C38.3415 30.1101 38.3915 29.9976 38.379 29.8976C38.3665 29.8101 38.304 29.7101 38.1915 29.6351C38.054 29.5351 37.8789 29.4601 37.6914 29.3851L37.4289 29.2601Z" fill="#214E34"/>
<path d="M16.453 25.0223C16.253 24.8598 16.2405 24.5723 16.4155 24.3847C17.103 23.7097 18.0031 23.2722 18.9656 23.1722C19.9282 23.0722 20.9033 23.3222 21.7033 23.8472C21.9158 23.9847 21.9533 24.2847 21.7908 24.4723C21.6533 24.6348 21.4158 24.6723 21.2408 24.5598C20.6032 24.1347 19.8032 23.9347 19.0531 24.0097C18.2906 24.0847 17.553 24.4472 17.0155 24.9848C16.8655 25.1473 16.6155 25.1598 16.453 25.0223Z" fill="#214E34"/>
<path d="M41.5917 23.8222C41.4167 23.9472 41.1792 23.9347 41.0292 23.7722C40.4666 23.1597 39.7041 22.7472 38.8915 22.6222C38.0665 22.4972 37.2164 22.6597 36.5039 23.0722C36.3164 23.1847 36.0788 23.1222 35.9538 22.9472C35.8038 22.7472 35.8663 22.4472 36.0913 22.3221C36.9789 21.8221 38.0165 21.6221 39.029 21.7846C40.0416 21.9471 40.9667 22.4472 41.6542 23.1972C41.8167 23.3847 41.7917 23.6722 41.5917 23.8222Z" fill="#214E34"/>
<path d="M29.0666 28.2101L29.2041 28.8351L29.3416 29.4477L29.4916 30.0602L29.6541 30.6727L29.8167 31.2853L29.9917 31.8853L30.1667 32.4854L30.3542 33.0854L30.5417 33.6854L30.7417 34.273L30.9542 34.8605C31.0292 35.0605 31.0917 35.248 31.1667 35.448L31.3918 36.0356L31.6168 36.6231L31.8543 37.1982L32.1043 37.7732L31.7168 37.3732L32.0418 37.5107L32.3543 37.6732L32.6543 37.8607L32.9294 38.0732C33.0169 38.1482 33.1044 38.2357 33.1919 38.3107L33.4294 38.5732C33.5044 38.6607 33.5669 38.7608 33.6419 38.8608C33.7044 38.9608 33.7669 39.0608 33.8294 39.1608C33.8794 39.2608 33.9419 39.3733 33.9919 39.4733C34.0419 39.5858 34.0794 39.6983 34.1169 39.8108C34.1544 39.9233 34.1794 40.0358 34.2169 40.1608C34.2419 40.2733 34.2544 40.3984 34.2794 40.5109C34.2919 40.6359 34.3044 40.7484 34.3044 40.8734C34.3044 40.9984 34.3044 41.1109 34.2919 41.2359C34.2794 41.3609 34.2544 41.4734 34.2419 41.5984C34.2169 41.7234 34.1794 41.8359 34.1544 41.9485L34.0044 42.536L33.4544 42.5735C33.3669 42.5735 33.2794 42.586 33.1919 42.586C33.1044 42.586 33.0169 42.5985 32.9294 42.5985C32.8418 42.611 32.7543 42.611 32.6793 42.6235C32.5918 42.636 32.5168 42.6485 32.4293 42.6485C32.3418 42.661 32.2668 42.6735 32.1793 42.686C32.1043 42.6985 32.0168 42.711 31.9418 42.736C31.8668 42.761 31.7918 42.7735 31.7168 42.7985C31.6793 42.811 31.6418 42.8235 31.6043 42.836C31.5668 42.8485 31.5293 42.861 31.5043 42.8735C31.4668 42.886 31.4293 42.8985 31.4043 42.911L31.3042 42.961C31.2417 42.9985 31.1667 43.0235 31.1167 43.0735L31.0292 43.136L30.9417 43.1985C30.9292 43.211 30.9167 43.2235 30.9042 43.236L30.8667 43.2735C30.8417 43.2985 30.8167 43.3235 30.7917 43.361L30.7292 43.4486L30.6917 43.4986C30.6917 43.4986 30.6917 43.5111 30.6917 43.4986V43.5111L30.6792 43.5236L30.6667 43.5486C30.6292 43.6111 30.5917 43.6861 30.5542 43.7736C30.5167 43.8611 30.4917 43.9486 30.4667 44.0361L30.3792 44.3111H30.2042C30.1667 44.2111 30.1417 44.1236 30.1167 44.0236C30.0917 43.9236 30.0667 43.8236 30.0667 43.7236C30.0542 43.6111 30.0542 43.5111 30.0542 43.386V43.3485V43.336V43.3235C30.0542 43.311 30.0542 43.311 30.0542 43.311L30.0667 43.2235L30.1042 43.0485C30.1167 42.9985 30.1417 42.936 30.1542 42.886L30.1792 42.7985C30.1917 42.7735 30.2042 42.7485 30.2167 42.7235L30.3042 42.561C30.3417 42.511 30.3667 42.461 30.4042 42.411L30.4542 42.336L30.5167 42.2735C30.5542 42.2235 30.5917 42.186 30.6292 42.136C30.6667 42.0985 30.7167 42.061 30.7542 42.011C30.7917 41.9735 30.8417 41.936 30.8917 41.8985C30.9417 41.861 30.9792 41.8234 31.0292 41.7984C31.0792 41.7609 31.1167 41.7359 31.1667 41.6984C31.2667 41.6359 31.3543 41.5734 31.4543 41.5234C31.5543 41.4734 31.6543 41.4234 31.7543 41.3734C31.8543 41.3359 31.9543 41.2859 32.0543 41.2484C32.1543 41.2109 32.2543 41.1734 32.3543 41.1484C32.4543 41.1109 32.5543 41.0859 32.6543 41.0609C32.8544 40.9984 33.0544 40.9609 33.2544 40.9234L32.5543 41.5484C32.5543 41.4859 32.5668 41.4109 32.5668 41.3484C32.5668 41.2859 32.5668 41.2109 32.5668 41.1484C32.5543 41.0859 32.5543 41.0109 32.5543 40.9484C32.5418 40.8859 32.5418 40.8109 32.5293 40.7484C32.5168 40.6859 32.5043 40.6109 32.4918 40.5484C32.4668 40.4859 32.4543 40.4109 32.4418 40.3484C32.4168 40.2858 32.3918 40.2108 32.3793 40.1483C32.3543 40.0858 32.3293 40.0108 32.3043 39.9483C32.2668 39.8858 32.2418 39.8233 32.2168 39.7483C32.1793 39.6858 32.1418 39.6233 32.1168 39.5608L32.0043 39.3858C31.9543 39.3358 31.9168 39.2733 31.8668 39.2108L31.7168 39.0483L31.5543 38.8983C31.4918 38.8608 31.4418 38.8108 31.3793 38.7733L31.1917 38.6607L30.8667 38.4732L30.8042 38.2607L30.6167 37.6482L30.4292 37.0356L30.2542 36.4231L30.0917 35.7981C30.0417 35.5856 29.9917 35.3855 29.9417 35.173L29.8042 34.548L29.6666 33.9229L29.5416 33.2979L29.4291 32.6729L29.3291 32.0353L29.2416 31.3978L29.1666 30.7602L29.1041 30.1227L29.0416 29.4852L28.9916 28.8476L28.9541 28.2101H29.0666Z" fill="#214E34"/>
<path d="M21.3404 47.5112C21.703 47.5612 22.0905 47.6237 22.453 47.7112C22.8155 47.7988 23.1781 47.9113 23.5406 48.0113L24.6031 48.3363C24.9532 48.4488 25.3032 48.5363 25.6532 48.6238C26.0032 48.7113 26.3533 48.7738 26.6908 48.8113L26.8158 48.8238L26.8783 48.8363H26.8908C26.8908 48.8363 26.8658 48.8363 26.8783 48.8363H26.8908H26.9283L27.2033 48.8488C27.3783 48.8488 27.5283 48.8488 27.7033 48.8363C28.0534 48.8238 28.3909 48.7863 28.7284 48.7238C29.0659 48.6613 29.4159 48.5863 29.7535 48.4863C29.916 48.4363 30.091 48.3863 30.2535 48.3238L30.5035 48.2363L30.7535 48.1363C31.0786 47.9988 31.4036 47.8488 31.7286 47.6987L32.2161 47.4612C32.3911 47.3862 32.5411 47.3112 32.7037 47.2362C33.0287 47.0862 33.3662 46.9487 33.7037 46.8112C33.8662 46.7487 34.0412 46.6737 34.2038 46.6112C34.3663 46.5487 34.5413 46.4737 34.7163 46.4112C34.8913 46.3487 35.0538 46.2737 35.2288 46.2112C35.3913 46.1361 35.5663 46.0861 35.7413 46.0111C36.0914 45.8861 36.4289 45.7486 36.7789 45.6236C37.1289 45.4986 37.479 45.3736 37.854 45.2611L37.9415 45.6486C37.879 45.6236 37.804 45.5861 37.7415 45.5486C37.679 45.5111 37.604 45.4861 37.5415 45.4486L37.5665 45.2861C37.6415 45.2736 37.7165 45.2611 37.7915 45.2486C37.8665 45.2361 37.9415 45.2236 38.0165 45.2236L38.504 45.1736L38.104 45.6236C37.5915 46.1986 37.0039 46.7112 36.3914 47.1737C36.0789 47.3987 35.7663 47.6237 35.4413 47.8238C35.2788 47.9238 35.1163 48.0238 34.9538 48.1238C34.7913 48.2238 34.6163 48.3113 34.4538 48.3988C34.1162 48.5738 33.7662 48.7363 33.4162 48.8738C33.2412 48.9488 33.0537 49.0113 32.8787 49.0738L32.6036 49.1613L32.3286 49.2488C31.9661 49.3614 31.5786 49.4614 31.2036 49.5489C30.8285 49.6364 30.441 49.7239 30.0535 49.7989C29.666 49.8739 29.2784 49.9239 28.8784 49.9489C28.4784 49.9739 28.0784 49.9864 27.6783 49.9614C27.4783 49.9489 27.2658 49.9239 27.0658 49.8989L26.7908 49.8489H26.7533H26.7408H26.7283H26.7158L26.6408 49.8364L26.4908 49.7989C26.1032 49.7114 25.7282 49.5864 25.3657 49.4489C24.6406 49.1738 23.9781 48.8363 23.3031 48.5238C22.9655 48.3613 22.6405 48.2113 22.2905 48.0738C21.953 47.9363 21.6155 47.7988 21.2529 47.6987L21.3404 47.5112Z" fill="#214E34"/>
</svg>
