<svg width="80" height="8" viewBox="0 0 80 8" fill="none" xmlns="http://www.w3.org/2000/svg">
<path d="M79 0C75.3594 0 73.4766 1.7344 71.8203 3.2656C70.2265 4.7344 68.8555 6 65.9922 6C63.1328 6 61.7578 4.7344 60.168 3.2656C58.5118 1.7344 56.6328 0 52.9883 0C49.3477 0 47.4688 1.7344 45.8086 3.2656C44.2227 4.7344 42.8477 6 39.9922 6C37.1328 6 35.7578 4.7344 34.168 3.2656C32.5118 1.7344 30.6328 0 26.9922 0C23.3516 0 21.4727 1.7344 19.8125 3.2656C18.2227 4.7344 16.8516 6 13.9922 6C11.1367 6 9.7656 4.7344 8.1758 3.2656C6.5196 1.7344 4.6406 0 1 0C0.44531 0 0 0.44531 0 1C0 1.55469 0.44531 2 1 2C3.8594 2 5.2305 3.2656 6.8203 4.7344C8.4765 6.2656 10.3555 8 13.9922 8C17.6328 8 19.5117 6.2656 21.168 4.7344C22.7578 3.2656 24.1328 2 26.9922 2C29.8516 2 31.2227 3.2656 32.8125 4.7344C34.4687 6.2656 36.3516 8 39.9922 8C43.6328 8 45.5117 6.2656 47.168 4.7344C48.7578 3.2656 50.1289 2 52.9883 2C55.8477 2 57.2227 3.2656 58.8125 4.7344C60.4727 6.2656 62.3516 8 65.9922 8C69.6328 8 71.5156 6.2656 73.1719 4.7344C74.7657 3.2656 76.1407 2 79 2C79.5547 2 80 1.55469 80 1C80 0.44531 79.5547 0 79 0Z" fill="#AD4E3C"/>
</svg>
