<svg width="80" height="10" viewBox="0 0 80 10" fill="none" xmlns="http://www.w3.org/2000/svg">
<path d="M79 0C75.9375 0 74.4961 2.46092 73.2227 4.63542C71.9141 6.8685 70.9336 8.33333 69.2461 8.33333C67.5586 8.33333 66.5742 6.8685 65.2656 4.63542C63.9922 2.46092 62.5547 0 59.4883 0C56.4258 0 54.9844 2.46092 53.7149 4.63542C52.4102 6.8685 51.4258 8.33333 49.7422 8.33333C48.0547 8.33333 47.0703 6.8685 45.7656 4.63542C44.4922 2.46092 43.0508 0 39.9883 0C36.9258 0 35.4844 2.46092 34.2149 4.63542C32.9102 6.8685 31.9258 8.33333 30.2422 8.33333C28.5547 8.33333 27.5742 6.8685 26.2695 4.63542C24.9961 2.46092 23.5547 0 20.4922 0C17.4297 0 15.9922 2.46092 14.7188 4.63542C13.4141 6.8685 12.4336 8.33333 10.75 8.33333C9.0625 8.33333 8.082 6.8685 6.7734 4.63542C5.5039 2.46092 4.0625 0 1 0C0.44922 0 0 0.371092 0 0.833333C0 1.29557 0.44922 1.66667 1 1.66667C2.6875 1.66667 3.668 3.1315 4.9766 5.36458C6.2461 7.53908 7.6875 10 10.75 10C13.8125 10 15.25 7.53908 16.5234 5.36458C17.8281 3.1315 18.8086 1.66667 20.4922 1.66667C22.1758 1.66667 23.1602 3.1315 24.4649 5.36458C25.7383 7.53908 27.1797 10 30.2422 10C33.3047 10 34.7461 7.53908 36.0156 5.36458C37.3203 3.1315 38.3008 1.66667 39.9883 1.66667C41.6758 1.66667 42.6602 3.1315 43.9649 5.36458C45.2344 7.53908 46.6758 10 49.7422 10C52.8047 10 54.2461 7.53908 55.5156 5.36458C56.8203 3.1315 57.8047 1.66667 59.4883 1.66667C61.1758 1.66667 62.1602 3.1315 63.4649 5.36458C64.7383 7.53908 66.1797 10 69.2461 10C72.3086 10 73.75 7.53908 75.0234 5.36458C76.3281 3.1315 77.3125 1.66667 79 1.66667C79.5508 1.66667 80 1.29557 80 0.833333C80 0.371092 79.5508 0 79 0V0Z" fill="#AD4E3C"/>
</svg>
